{
  "asset": {
    "version": "2.0",
    "generator": "THREE.GLTFExporter"
  },
  "scenes": [
    {
      "nodes": [
        0
      ]
    }
  ],
  "scene": 0,
  "nodes": [
    {
      "children": [
        9
      ],
      "matrix": [
        0.01,
        0,
        0,
        0,
        0,
        0.01,
        0,
        0,
        0,
        0,
        0.01,
        0,
        0,
        0,
        0,
        1
      ]
    },
    {
      "matrix": [
        53.3318797679196,
        42.56100799045705,
        -14.385004478071064,
        0,
        -35.81615581985413,
        53.75792097253783,
        26.26682450499132,
        0,
        27.121407361820342,
        -12.70053881236282,
        62.97446094384269,
        0,
        -24.69502722696504,
        300.47280263798206,
        154.72347268606697,
        1
      ],
      "name": "directionalLight1"
    },
    {
      "matrix": [
        0.45852444551651605,
        -0.7705132427756717,
        0.4427919100108879,
        0,
        0.5542608422159642,
        0.6374239897488319,
        0.5352434736442204,
        0,
        -0.6946583704597689,
        0,
        0.719339800337906,
        0,
        -334.71766392277243,
        552.5751123528169,
        -327.30382439255624,
        1
      ],
      "name": "camera1"
    },
    {
      "matrix": [
        62.990571219154226,
        -6.916784201204233,
        -29.430646166855254,
        0,
        -17.16888019185483,
        47.63819064271409,
        -47.94256459372889,
        0,
        24.81223853130143,
        50.4539969583196,
        41.24808073805838,
        0,
        -78.08901248122207,
        170.56915355533326,
        -65.35765664678286,
        1
      ],
      "name": "directionalLight2"
    },
    {
      "matrix": [
        0.9173089203414553,
        -0.0143830443598171,
        -0.39791641420898516,
        0,
        0.0215255152315971,
        0.999677309351773,
        0.013488119261554153,
        0,
        0.3975940100856745,
        -0.02093812795221107,
        0.9173225157717697,
        0,
        -1.9818400718263571,
        -1.5895795654064215,
        -2.891110334212307,
        1
      ],
      "name": "shell_upper1",
      "mesh": 0
    },
    {
      "matrix": [
        2.877405807577931,
        0,
        0,
        0,
        0,
        2.877405807577931,
        0,
        0,
        0,
        0,
        2.877405807577931,
        0,
        0,
        21.300605019468016,
        0,
        1
      ],
      "name": "seashell_fbx",
      "children": [
        1,
        2,
        3,
        4
      ]
    },
    {
      "matrix": [
        0.5883484054145521,
        0.39223227027636803,
        -0.7071067811865475,
        0,
        -0.554700196225229,
        0.8320502943378437,
        0,
        0,
        0.588348405414552,
        0.392232270276368,
        0.7071067811865476,
        0,
        0,
        0,
        0,
        1
      ],
      "name": "Directional Light",
      "extensions": {
        "KHR_lights_punctual": {
          "light": 0
        }
      }
    },
    {
      "matrix": [
        -0.7811212142417068,
        3.6179366606770014e-8,
        0.6243794108245083,
        0,
        0.08260895666826834,
        0.9912089653136764,
        0.1033467336686127,
        0,
        -0.6188904660275044,
        0.13230565778450176,
        -0.7742543535418243,
        0,
        -776.7093485257188,
        627.117796151216,
        -1293.1461261213174,
        1
      ],
      "name": "Personal Camera",
      "camera": 0
    },
    {
      "matrix": [
        1,
        0,
        0,
        0,
        0,
        1,
        0,
        0,
        0,
        0,
        1,
        0,
        0,
        1,
        0,
        1
      ],
      "name": "Default Ambient Light"
    },
    {
      "name": "Scene 1",
      "children": [
        5,
        6,
        7,
        8
      ]
    }
  ],
  "bufferViews": [
    {
      "buffer": 0,
      "byteOffset": 0,
      "byteLength": 270720,
      "target": 34962,
      "byteStride": 12
    },
    {
      "buffer": 0,
      "byteOffset": 270720,
      "byteLength": 270720,
      "target": 34962,
      "byteStride": 12
    },
    {
      "buffer": 0,
      "byteOffset": 541440,
      "byteLength": 180480,
      "target": 34962,
      "byteStride": 8
    }
  ],
  "buffers": [
    {
      "byteLength": 721920,
      "uri": "data:application/octet-stream;base64,"
    }
  ],
  "accessors": [
    {
      "bufferView": 0,
      "componentType": 5126,
      "count": 22560,
      "max": [
        44.289390563964844,
        28.71530532836914,
        41.50841522216797
      ],
      "min": [
        -44.29398727416992,
        15.406750679016113,
        -39.569618225097656
      ],
      "type": "VEC3"
    },
    {
      "bufferView": 1,
      "componentType": 5126,
      "count": 22560,
      "max": [
        0.9999857544898987,
        0.999768078327179,
        0.9955773949623108
      ],
      "min": [
        -0.9999802112579346,
        -0.9998680353164673,
        -1
      ],
      "type": "VEC3"
    },
    {
      "bufferView": 2,
      "componentType": 5126,
      "count": 22560,
      "max": [
        0.9797754287719727,
        0.9819686412811279
      ],
      "min": [
        0.01519644632935524,
        0.02740926295518875
      ],
      "type": "VEC2"
    }
  ],
  "meshes": [
    {
      "primitives": [
        {
          "mode": 4,
          "attributes": {
            "POSITION": 0,
            "NORMAL": 1,
            "TEXCOORD_0": 2
          },
          "extras": {
            "parameters": {
              "width": 88.58337783813477,
              "height": 13.308554649353027,
              "depth": 81.07803344726562,
              "subdivisions": 0
            },
            "type": "NonParametricGeometry"
          }
        }
      ]
    }
  ],
  "extensions": {
    "KHR_lights_punctual": {
      "lights": [
        {
          "name": "Directional Light",
          "color": [
            1,
            1,
            1
          ],
          "intensity": 0.7,
          "type": "directional"
        }
      ]
    }
  },
  "cameras": [
    {
      "type": "perspective",
      "perspective": {
        "aspectRatio": 2.2503293807641636,
        "yfov": 0.7853981633974483,
        "zfar": 100000,
        "znear": 70
      },
      "name": "Camera"
    }
  ],
  "extensionsUsed": [
    "KHR_lights_punctual"
  ]
}