{
  "asset": {
    "version": "2.0",
    "generator": "THREE.GLTFExporter"
  },
  "scenes": [
    {
      "nodes": [
        0
      ]
    }
  ],
  "scene": 0,
  "nodes": [
    {
      "children": [
        11
      ],
      "matrix": [
        0.01,
        0,
        0,
        0,
        0,
        0.01,
        0,
        0,
        0,
        0,
        0.01,
        0,
        0,
        0,
        0,
        1
      ]
    },
    {
      "matrix": [
        53.3318797679196,
        42.56100799045705,
        -14.385004478071064,
        0,
        -35.81615581985413,
        53.75792097253783,
        26.26682450499132,
        0,
        27.121407361820342,
        -12.70053881236282,
        62.97446094384269,
        0,
        -24.69502722696504,
        300.47280263798206,
        154.72347268606697,
        1
      ],
      "name": "directionalLight1"
    },
    {
      "matrix": [
        0.45852444551651605,
        -0.7705132427756717,
        0.4427919100108879,
        0,
        0.5542608422159642,
        0.6374239897488319,
        0.5352434736442204,
        0,
        -0.6946583704597689,
        0,
        0.719339800337906,
        0,
        -334.71766392277243,
        552.5751123528169,
        -327.30382439255624,
        1
      ],
      "name": "camera1"
    },
    {
      "matrix": [
        62.990571219154226,
        -6.916784201204233,
        -29.430646166855254,
        0,
        -17.16888019185483,
        47.63819064271409,
        -47.94256459372889,
        0,
        24.81223853130143,
        50.4539969583196,
        41.24808073805838,
        0,
        -78.08901248122207,
        170.56915355533326,
        -65.35765664678286,
        1
      ],
      "name": "directionalLight2"
    },
    {
      "matrix": [
        -0.9092829450904016,
        7.149751578708796e-17,
        0.4161784782611011,
        0,
        -1.6198946659016303e-16,
        -1,
        -2.2237734728493957e-16,
        0,
        0.4161784782611011,
        -3.4450928483976665e-16,
        0.9092829450904019,
        0,
        -0.8068855838979097,
        29.206732009788038,
        -1.7629150434285128,
        1
      ],
      "name": "shell_lower",
      "mesh": 0
    },
    {
      "matrix": [
        -0.3110785356812549,
        -0.00518330579104689,
        0.15486781734808971,
        0,
        0.15178835176793237,
        0.059663364331745204,
        0.30688978818929513,
        0,
        -0.03116414248233377,
        0.3423363538515483,
        -0.051140785344447576,
        0,
        0.0020445102172620935,
        12.569727685005624,
        4.962998880383401,
        1
      ],
      "name": "Rectangle",
      "mesh": 1
    },
    {
      "matrix": [
        0.904883947672326,
        -0.017532196075659957,
        -0.42529714711682687,
        0,
        0.3604211346824633,
        -0.5000000000000003,
        0.7874621296762182,
        0,
        -0.22645451401805364,
        -0.8658479208849345,
        -0.44612299983309817,
        0,
        18.086247098007842,
        53.17114500636037,
        37.04635616871522,
        1
      ],
      "name": "shell_upper1",
      "mesh": 2
    },
    {
      "matrix": [
        2.877405807577931,
        0,
        0,
        0,
        0,
        2.877405807577931,
        0,
        0,
        0,
        0,
        2.877405807577931,
        0,
        0,
        21.300605019468016,
        0,
        1
      ],
      "name": "seashell_fbx",
      "children": [
        1,
        2,
        3,
        4,
        5,
        6
      ]
    },
    {
      "matrix": [
        0.5883484054145521,
        0.39223227027636803,
        -0.7071067811865475,
        0,
        -0.554700196225229,
        0.8320502943378437,
        0,
        0,
        0.588348405414552,
        0.392232270276368,
        0.7071067811865476,
        0,
        0,
        0,
        0,
        1
      ],
      "name": "Directional Light",
      "extensions": {
        "KHR_lights_punctual": {
          "light": 0
        }
      }
    },
    {
      "matrix": [
        -0.7811212142417072,
        3.61793666206478e-8,
        0.624379410824508,
        0,
        0.08260895666826834,
        0.9912089653136764,
        0.10334673366861276,
        0,
        -0.6188904660275041,
        0.13230565778450182,
        -0.7742543535418247,
        0,
        -584.9718660702035,
        586.1283882822413,
        -1053.2756018891032,
        1
      ],
      "name": "Personal Camera",
      "camera": 0
    },
    {
      "matrix": [
        1,
        0,
        0,
        0,
        0,
        1,
        0,
        0,
        0,
        0,
        1,
        0,
        0,
        1,
        0,
        1
      ],
      "name": "Default Ambient Light"
    },
    {
      "name": "Scene 1",
      "children": [
        7,
        8,
        9,
        10
      ]
    }
  ],
  "bufferViews": [
    {
      "buffer": 0,
      "byteOffset": 0,
      "byteLength": 270720,
      "target": 34962,
      "byteStride": 12
    },
    {
      "buffer": 0,
      "byteOffset": 270720,
      "byteLength": 270720,
      "target": 34962,
      "byteStride": 12
    },
    {
      "buffer": 0,
      "byteOffset": 541440,
      "byteLength": 180480,
      "target": 34962,
      "byteStride": 8
    },
    {
      "buffer": 0,
      "byteOffset": 721920,
      "byteLength": 48,
      "target": 34962,
      "byteStride": 12
    },
    {
      "buffer": 0,
      "byteOffset": 721968,
      "byteLength": 48,
      "target": 34962,
      "byteStride": 12
    },
    {
      "buffer": 0,
      "byteOffset": 722016,
      "byteLength": 32,
      "target": 34962,
      "byteStride": 8
    },
    {
      "buffer": 0,
      "byteOffset": 722048,
      "byteLength": 24,
      "target": 34963
    },
    {
      "buffer": 0,
      "byteOffset": 722072,
      "byteLength": 270720,
      "target": 34962,
      "byteStride": 12
    },
    {
      "buffer": 0,
      "byteOffset": 992792,
      "byteLength": 270720,
      "target": 34962,
      "byteStride": 12
    },
    {
      "buffer": 0,
      "byteOffset": 1263512,
      "byteLength": 180480,
      "target": 34962,
      "byteStride": 8
    }
  ],
  "buffers": [
    {
      "byteLength": 1443992,
      "uri": "data:application/octet-stream;base64,"
    }
  ],
  "accessors": [
    {
      "bufferView": 0,
      "componentType": 5126,
      "count": 22560,
      "max": [
        44.289390563964844,
        28.71530532836914,
        41.50841522216797
      ],
      "min": [
        -44.29398727416992,
        15.406750679016113,
        -39.569618225097656
      ],
      "type": "VEC3"
    },
    {
      "bufferView": 1,
      "componentType": 5126,
      "count": 22560,
      "max": [
        0.9999857544898987,
        0.999768078327179,
        0.9955773949623108
      ],
      "min": [
        -0.9999802112579346,
        -0.9998680353164673,
        -1
      ],
      "type": "VEC3"
    },
    {
      "bufferView": 2,
      "componentType": 5126,
      "count": 22560,
      "max": [
        0.9797754287719727,
        0.9819686412811279
      ],
      "min": [
        0.01519644632935524,
        0.02740926295518875
      ],
      "type": "VEC2"
    },
    {
      "bufferView": 3,
      "componentType": 5126,
      "count": 4,
      "max": [
        75.73904418945312,
        37.54065704345703,
        0
      ],
      "min": [
        -75.73904418945312,
        -37.54065704345703,
        0
      ],
      "type": "VEC3"
    },
    {
      "bufferView": 4,
      "componentType": 5126,
      "count": 4,
      "max": [
        0,
        0,
        1
      ],
      "min": [
        0,
        0,
        1
      ],
      "type": "VEC3"
    },
    {
      "bufferView": 5,
      "componentType": 5126,
      "count": 4,
      "max": [
        1,
        1
      ],
      "min": [
        0,
        0
      ],
      "type": "VEC2"
    },
    {
      "bufferView": 6,
      "componentType": 5125,
      "count": 6,
      "max": [
        3
      ],
      "min": [
        0
      ],
      "type": "SCALAR"
    },
    {
      "bufferView": 7,
      "componentType": 5126,
      "count": 22560,
      "max": [
        44.289390563964844,
        28.71530532836914,
        41.50841522216797
      ],
      "min": [
        -44.29398727416992,
        15.406750679016113,
        -39.569618225097656
      ],
      "type": "VEC3"
    },
    {
      "bufferView": 8,
      "componentType": 5126,
      "count": 22560,
      "max": [
        0.9999857544898987,
        0.999768078327179,
        0.9955773949623108
      ],
      "min": [
        -0.9999802112579346,
        -0.9998680353164673,
        -1
      ],
      "type": "VEC3"
    },
    {
      "bufferView": 9,
      "componentType": 5126,
      "count": 22560,
      "max": [
        0.9797754287719727,
        0.9819686412811279
      ],
      "min": [
        0.01519644632935524,
        0.02740926295518875
      ],
      "type": "VEC2"
    }
  ],
  "meshes": [
    {
      "primitives": [
        {
          "mode": 4,
          "attributes": {
            "POSITION": 0,
            "NORMAL": 1,
            "TEXCOORD_0": 2
          },
          "extras": {
            "parameters": {
              "width": 88.58337783813477,
              "height": 13.308554649353027,
              "depth": 81.07803344726562,
              "subdivisions": 0
            },
            "type": "NonParametricGeometry"
          }
        }
      ]
    },
    {
      "primitives": [
        {
          "mode": 4,
          "attributes": {
            "POSITION": 3,
            "NORMAL": 4,
            "TEXCOORD_0": 5
          },
          "extras": {
            "shape": {
              "points": [
                -75.73904205251338,
                37.540658125109275,
                -75.73904205251338,
                37.540658125109275,
                -75.73904205251338,
                37.540658125109275,
                0,
                75.73904205251338,
                37.540658125109275,
                75.73904205251338,
                37.540658125109275,
                75.73904205251338,
                37.540658125109275,
                0,
                75.73904205251338,
                -37.540658125109275,
                75.73904205251338,
                -37.540658125109275,
                75.73904205251338,
                -37.540658125109275,
                0,
                -75.73904205251338,
                -37.540658125109275,
                -75.73904205251338,
                -37.540658125109275,
                -75.73904205251338,
                -37.540658125109275,
                0
              ],
              "shapeHoles": [],
              "isClosed": true,
              "roundness": 0
            },
            "parameters": {
              "width": 151.47808410502677,
              "depth": 0,
              "cornerRadius": [
                0,
                0,
                0,
                0
              ],
              "cornerType": 1,
              "extrudeBevelSize": 0,
              "extrudeBevelSegments": 1,
              "height": 75.08131625021855,
              "type": "RectangleGeometry",
              "subdivisions": 12,
              "shape": {
                "isClosed": true,
                "points": [
                  {
                    "id": "6bbf133b-2774-454b-897a-d755f04d92e6",
                    "fi": 0,
                    "data": {
                      "position": [
                        -69.33039146362951,
                        41.05738150190396
                      ],
                      "controlNext": {
                        "position": [
                          -69.33039146362951,
                          41.05738150190396
                        ]
                      },
                      "controlPrevious": {
                        "position": [
                          -69.33039146362951,
                          41.05738150190396
                        ]
                      },
                      "areControlsDirectionsMirrored": true,
                      "roundness": 0
                    }
                  },
                  {
                    "id": "ab61cd42-888f-4e4c-8386-d86f7f8b7de3",
                    "fi": 1,
                    "data": {
                      "position": [
                        69.33039146362951,
                        41.05738150190396
                      ],
                      "controlNext": {
                        "position": [
                          69.33039146362951,
                          41.05738150190396
                        ]
                      },
                      "controlPrevious": {
                        "position": [
                          69.33039146362951,
                          41.05738150190396
                        ]
                      },
                      "areControlsDirectionsMirrored": true,
                      "roundness": 0
                    }
                  },
                  {
                    "id": "ec53378c-2969-4d1b-b225-626ee0643a05",
                    "fi": 2,
                    "data": {
                      "position": [
                        69.33039146362951,
                        -41.05738150190396
                      ],
                      "controlNext": {
                        "position": [
                          69.33039146362951,
                          -41.05738150190396
                        ]
                      },
                      "controlPrevious": {
                        "position": [
                          69.33039146362951,
                          -41.05738150190396
                        ]
                      },
                      "areControlsDirectionsMirrored": true,
                      "roundness": 0
                    }
                  },
                  {
                    "id": "e90f01cb-03ab-4fa6-9319-7ce4d4c8d728",
                    "fi": 3,
                    "data": {
                      "position": [
                        -69.33039146362951,
                        -41.05738150190396
                      ],
                      "controlNext": {
                        "position": [
                          -69.33039146362951,
                          -41.05738150190396
                        ]
                      },
                      "controlPrevious": {
                        "position": [
                          -69.33039146362951,
                          -41.05738150190396
                        ]
                      },
                      "areControlsDirectionsMirrored": true,
                      "roundness": 0
                    }
                  }
                ],
                "roundness": 0,
                "shapeHoles": []
              }
            },
            "ui": {
              "enabledIndieCorners": false
            },
            "type": "RectangleGeometry"
          },
          "indices": 6
        }
      ]
    },
    {
      "primitives": [
        {
          "mode": 4,
          "attributes": {
            "POSITION": 7,
            "NORMAL": 8,
            "TEXCOORD_0": 9
          },
          "extras": {
            "parameters": {
              "width": 88.58337783813477,
              "height": 13.308554649353027,
              "depth": 81.07803344726562,
              "subdivisions": 0
            },
            "type": "NonParametricGeometry"
          }
        }
      ]
    }
  ],
  "extensions": {
    "KHR_lights_punctual": {
      "lights": [
        {
          "name": "Directional Light",
          "color": [
            1,
            1,
            1
          ],
          "intensity": 0.7,
          "type": "directional"
        }
      ]
    }
  },
  "cameras": [
    {
      "type": "perspective",
      "perspective": {
        "aspectRatio": 2.2503293807641636,
        "yfov": 0.7853981633974483,
        "zfar": 100000,
        "znear": 70
      },
      "name": "Camera"
    }
  ],
  "extensionsUsed": [
    "KHR_lights_punctual"
  ]
}